<svg xmlns="http://www.w3.org/2000/svg" xmlns:xlink="http://www.w3.org/1999/xlink" width="1024" height="1024" viewBox="0 0 270.93333 270.93334"><defs><clipPath id="f"><path d="M215.918 396.707c0 167.39 132.805 387.156 290.894 502.535 19.508 14.238 46.028 14.23 65.364-.238 166.695-124.719 291.906-333.98 291.906-502.297 0-178.984-145.098-238.375-324.082-238.375-178.988 0-324.082 59.39-324.082 238.375"/></clipPath><linearGradient id="a" gradientUnits="userSpaceOnUse" x1="-.305" x2="1.144" gradientTransform="rotate(-135 535.883 188.268) scale(684.51695)"><stop offset="0" stop-color="#3880ff"/><stop offset=".125" stop-color="#3880ff"/><stop offset=".188" stop-color="#3880ff"/><stop offset=".219" stop-color="#3880ff"/><stop offset=".234" stop-color="#3881fe"/><stop offset=".25" stop-color="#3782fe"/><stop offset=".266" stop-color="#3783fd"/><stop offset=".281" stop-color="#3684fc"/><stop offset=".297" stop-color="#3685fb"/><stop offset=".313" stop-color="#3586fb"/><stop offset=".328" stop-color="#3587fa"/><stop offset=".344" stop-color="#3587f9"/><stop offset=".359" stop-color="#3488f9"/><stop offset=".375" stop-color="#3489f8"/><stop offset=".391" stop-color="#338af7"/><stop offset=".406" stop-color="#338bf7"/><stop offset=".422" stop-color="#328cf6"/><stop offset=".438" stop-color="#328df5"/><stop offset=".453" stop-color="#328ef4"/><stop offset=".469" stop-color="#318ff4"/><stop offset=".484" stop-color="#3190f3"/><stop offset=".5" stop-color="#3091f2"/><stop offset=".516" stop-color="#3092f2"/><stop offset=".531" stop-color="#2f93f1"/><stop offset=".547" stop-color="#2f94f0"/><stop offset=".563" stop-color="#2f94f0"/><stop offset=".578" stop-color="#2e95ef"/><stop offset=".594" stop-color="#2e96ee"/><stop offset=".609" stop-color="#2d97ed"/><stop offset=".625" stop-color="#2d98ed"/><stop offset=".641" stop-color="#2c99ec"/><stop offset=".656" stop-color="#2c9aeb"/><stop offset=".672" stop-color="#2b9beb"/><stop offset=".688" stop-color="#2b9cea"/><stop offset=".703" stop-color="#2b9de9"/><stop offset=".719" stop-color="#2a9ee8"/><stop offset=".734" stop-color="#2a9fe8"/><stop offset=".75" stop-color="#29a0e7"/><stop offset=".766" stop-color="#29a1e6"/><stop offset=".781" stop-color="#28a1e6"/><stop offset=".797" stop-color="#28a2e5"/><stop offset=".813" stop-color="#28a3e4"/><stop offset=".828" stop-color="#27a4e4"/><stop offset=".844" stop-color="#27a5e3"/><stop offset=".859" stop-color="#26a6e2"/><stop offset=".875" stop-color="#26a7e1"/><stop offset=".891" stop-color="#25a8e1"/><stop offset=".906" stop-color="#25a9e0"/><stop offset=".938" stop-color="#25a9e0"/><stop offset="1" stop-color="#25a9e0"/></linearGradient><clipPath id="b"><path d="M215 158h650v752H215zm0 0"/></clipPath><clipPath id="c"><path d="M215.918 396.707c0 167.39 132.805 387.156 290.894 502.535 19.508 14.238 46.028 14.23 65.364-.238 166.695-124.719 291.906-333.98 291.906-502.297 0-178.984-145.098-238.375-324.082-238.375-178.988 0-324.082 59.39-324.082 238.375"/></clipPath><linearGradient xlink:href="#a" id="d" gradientUnits="userSpaceOnUse" gradientTransform="rotate(-135 535.883 188.268) scale(684.51695)" x1="-.305" x2="1.144"/><clipPath id="e"><path d="M724.25 428.07c-40.258 0-37.77 78.387-56.766 113.89-3.187 5.903-11.886 5.15-13.988-1.23-21.566-66.136-11.719-226.828-70.219-226.828-61.238 0-46.101 207.946-69.937 292.684-1.762 6.434-10.66 6.992-13.262.781-25.18-60.457-22.351-192.332-69.996-192.332-49.293 0-45.098 110.477-64.398 154.985-2.547 5.96-10.97 6.156-13.793.28-14.075-29.347-18.579-88.542-71.73-88.542H218.25c-7.695 0-13.96 6.265-13.96 13.96 0 7.692 6.265 14.016 13.96 14.016h61.91c43.977 0 29.04 97.465 79.844 97.465 47.11 0 42.02-106.027 62.191-153.027 2.461-5.817 10.684-5.649 13.035.168 22.52 57.265 22.102 195.273 73.883 195.273 58.106 0 37.407-219.781 68.348-297.133 2.32-5.902 10.742-6.21 13.398-.335 28.79 62.945 13.625 227.332 65.578 227.332 45.852 0 48.594-75.704 62.383-112.965 2.266-5.934 10.438-6.352 13.262-.758 14.438 28.004 23.668 71.953 67.145 71.953h62.523c7.695 0 13.96-6.266 13.96-13.96 0-7.72-6.265-13.985-13.96-13.985h-62.523c-37.016 0-31.25-81.692-74.977-81.692" fill="#fff"/></clipPath></defs><g clip-path="url(#b)" transform="translate(-4.727 -3.197) scale(.25962)"><g clip-path="url(#c)"><path d="M540 1237.563l701.656-701.657L540-165.75l-701.656 701.656zm0 0" fill="url(#d)"/></g></g><g clip-path="url(#e)" transform="translate(-4.727 -3.197) scale(.25962)" fill="#fff"><g clip-path="url(#f)"><path d="M540 1237.563l701.656-701.657L540-165.75l-701.656 701.656zm0 0"/></g></g></svg>